<svg width="128" height="128" viewBox="0 0 128 128" fill="none" xmlns="http://www.w3.org/2000/svg">
  <rect width="128" height="128" rx="28" fill="#08090C"/>
  <rect x="1" y="1" width="126" height="126" rx="27" stroke="white" stroke-opacity=".1" stroke-width="2"/>
  <path d="M21 84c7.8 7.4 18.2 11.4 30.2 11.4 15.9 0 27.4-7.3 27.4-20 0-8.7-5.7-14.4-14.1-16.5 6.9-2.6 11.2-7.9 11.2-15.4 0-11.4-9.8-18.9-24.1-18.9-11.1 0-20.1 3.7-27.2 10.6l10.5 12.1c4.4-4.4 9.4-6.8 15.3-6.8 5.5 0 8.8 2.4 8.8 6.5 0 4.6-4.2 6.7-11.2 6.7h-7.1v15.1h7.4c7.8 0 12.4 2.2 12.4 7.1 0 4.8-4.6 7.5-11.2 7.5-7 0-13.1-2.8-18.4-8.1L21 84Z" fill="url(#six3Gradient)"/>
  <circle cx="95" cy="34" r="10" fill="url(#six3Gradient)"/>
  <circle cx="95" cy="34" r="15" stroke="url(#six3Gradient)" stroke-opacity=".28" stroke-width="4"/>
  <defs>
    <linearGradient id="six3Gradient" x1="18" y1="25" x2="111" y2="99" gradientUnits="userSpaceOnUse">
      <stop stop-color="#3B6DFF"/>
      <stop offset="1" stop-color="#8B5CF6"/>
    </linearGradient>
  </defs>
</svg>
